<mxfile host="app.diagrams.net" modified="2020-08-09T08:40:32.710Z" agent="5.0 (Macintosh; Intel Mac OS X 10_15_5) AppleWebKit/537.36 (KHTML, like Gecko) Chrome/84.0.4147.105 Safari/537.36" etag="nMcsdpbn8wVqqkOZxy16" version="13.5.8" type="github">
  <diagram id="gFD_TrmpybdI_1MrAwx4" name="Page-1">
    <mxGraphModel dx="2066" dy="1105" grid="1" gridSize="10" guides="1" tooltips="1" connect="1" arrows="1" fold="1" page="1" pageScale="1" pageWidth="827" pageHeight="1169" math="0" shadow="0">
      <root>
        <mxCell id="0" />
        <mxCell id="1" parent="0" />
        <mxCell id="jXuGPg-IeMFqwBJ1wWH4-1" value="&lt;h1&gt;Program 0&lt;/h1&gt;&lt;p&gt;{&lt;/p&gt;&lt;p&gt;Lock(L)&lt;/p&gt;&lt;p&gt;counter++&lt;/p&gt;&lt;p&gt;Unlock(L)&lt;/p&gt;&lt;p&gt;}&lt;/p&gt;" style="text;html=1;fillColor=none;spacing=5;spacingTop=-20;whiteSpace=wrap;overflow=hidden;rounded=0;strokeColor=#00FF00;strokeWidth=2;" vertex="1" parent="1">
          <mxGeometry x="150" y="240" width="190" height="200" as="geometry" />
        </mxCell>
        <mxCell id="jXuGPg-IeMFqwBJ1wWH4-2" value="&lt;h1&gt;Program 1&lt;/h1&gt;&lt;p&gt;{&lt;/p&gt;&lt;p&gt;Lock(L)&lt;/p&gt;&lt;p&gt;counter--&lt;/p&gt;&lt;p&gt;Unlock(L)&lt;br&gt;&lt;/p&gt;&lt;p&gt;}&lt;/p&gt;" style="text;html=1;fillColor=none;spacing=5;spacingTop=-20;whiteSpace=wrap;overflow=hidden;rounded=0;strokeWidth=2;strokeColor=#FF0080;" vertex="1" parent="1">
          <mxGeometry x="530" y="240" width="190" height="200" as="geometry" />
        </mxCell>
        <mxCell id="jXuGPg-IeMFqwBJ1wWH4-3" value="&lt;font style=&quot;font-size: 23px&quot;&gt;&lt;b&gt;shared variable&lt;br&gt;&lt;/b&gt;&lt;/font&gt;int counter = 5;&lt;br&gt;lock_t&amp;nbsp; L;" style="text;html=1;strokeColor=none;fillColor=none;align=center;verticalAlign=middle;whiteSpace=wrap;rounded=0;" vertex="1" parent="1">
          <mxGeometry x="330" y="140" width="200" height="50" as="geometry" />
        </mxCell>
      </root>
    </mxGraphModel>
  </diagram>
</mxfile>
